<svg version="1.1" preserveAspectRatio="none" xmlns="http://www.w3.org/2000/svg" width="500" height="500" viewBox="0 0 500 500"><rect width="100%" height="100%" fill="#121212" fill-opacity="1"/><svg viewBox="57.4551 80.6804 385.2522 283.481" width="333" height="245.03214517658822" x="83.5px" y="127.4839px" xmlns="http://www.w3.org/2000/svg" xmlns:xlink="http://www.w3.org/1999/xlink" preserveAspectRatio="none"><defs></defs><style>.companyName {fill:#E3E3E3;fill-opacity:1;}.icon1 {fill:#F1EC40;fill-opacity:1;}.icon2 {fill:#555555;fill-opacity:1;}.icon3 {fill:#AAAAAA;fill-opacity:1;}.icon3-str {stroke:#AAAAAA;stroke-opacity:1;}</style><g opacity="1" transform="rotate(0 57.4551 328.1614)">
<svg width="385.2522" height="36" x="57.4551" y="328.1614" version="1.1" preserveAspectRatio="none" viewBox="2.5781 -28.3984 308.086 28.7891">
  <g transform="matrix(1 0 0 1 0 0)" class="companyName"><path id="id-D6z1nYkh11" d="M28.03-5.08L28.03 0L9.71 0Q9.00 0 8.19-0.17Q7.38-0.33 6.59-0.68Q5.80-1.04 5.08-1.59Q4.36-2.15 3.80-2.94Q3.24-3.73 2.91-4.78Q2.58-5.82 2.58-7.13L2.58-7.13L2.58-20.88Q2.58-21.58 2.74-22.39Q2.91-23.20 3.26-23.99Q3.61-24.79 4.18-25.51Q4.75-26.23 5.54-26.79Q6.33-27.34 7.36-27.68Q8.40-28.01 9.71-28.01L9.71-28.01L28.03-28.01L28.03-22.93L9.71-22.93Q8.71-22.93 8.18-22.40Q7.66-21.88 7.66-20.84L7.66-20.84L7.66-7.13Q7.66-6.15 8.19-5.62Q8.73-5.08 9.71-5.08L9.71-5.08L28.03-5.08Z M61.82-16.68L61.82-11.33Q61.82-8.77 60.94-6.62Q60.06-4.47 58.50-2.91Q56.93-1.35 54.79-0.48Q52.66 0.39 50.14 0.39L50.14 0.39L43.26 0.39Q40.74 0.39 38.59-0.48Q36.45-1.35 34.88-2.91Q33.32-4.47 32.43-6.62Q31.54-8.77 31.54-11.33L31.54-11.33L31.54-16.68Q31.54-19.22 32.43-21.38Q33.32-23.54 34.88-25.09Q36.45-26.64 38.59-27.52Q40.74-28.40 43.26-28.40L43.26-28.40L50.14-28.40Q52.66-28.40 54.79-27.52Q56.93-26.64 58.50-25.09Q60.06-23.54 60.94-21.38Q61.82-19.22 61.82-16.68L61.82-16.68ZM56.74-11.33L56.74-16.68Q56.74-18.18 56.26-19.40Q55.78-20.63 54.91-21.49Q54.04-22.36 52.82-22.84Q51.60-23.32 50.14-23.32L50.14-23.32L43.26-23.32Q41.78-23.32 40.56-22.84Q39.34-22.36 38.46-21.49Q37.58-20.63 37.10-19.40Q36.62-18.18 36.62-16.68L36.62-16.68L36.62-11.33Q36.62-9.82 37.10-8.60Q37.58-7.38 38.46-6.51Q39.34-5.64 40.56-5.17Q41.78-4.69 43.26-4.69L43.26-4.69L50.10-4.69Q51.58-4.69 52.80-5.17Q54.02-5.64 54.90-6.51Q55.78-7.38 56.26-8.60Q56.74-9.82 56.74-11.33L56.74-11.33Z M94.79-16.29L94.79-11.72Q94.79-9.16 93.90-7.01Q93.01-4.86 91.45-3.31Q89.88-1.76 87.73-0.88Q85.59 0 83.07 0L83.07 0L69.36 0Q68.81 0 68.34-0.20Q67.87-0.39 67.53-0.73Q67.19-1.07 66.99-1.54Q66.80-2.01 66.80-2.56L66.80-2.56L66.80-25.45Q66.80-25.98 66.99-26.45Q67.19-26.91 67.53-27.27Q67.87-27.62 68.34-27.81Q68.81-28.01 69.36-28.01L69.36-28.01L83.07-28.01Q85.59-28.01 87.73-27.13Q89.88-26.25 91.45-24.70Q93.01-23.14 93.90-20.99Q94.79-18.83 94.79-16.29L94.79-16.29ZM89.71-11.72L89.71-16.29Q89.71-17.77 89.23-19.00Q88.75-20.23 87.87-21.10Q86.99-21.97 85.77-22.45Q84.55-22.93 83.07-22.93L83.07-22.93L71.88-22.93L71.88-5.08L83.07-5.08Q84.55-5.08 85.77-5.56Q86.99-6.04 87.87-6.90Q88.75-7.77 89.23-8.99Q89.71-10.21 89.71-11.72L89.71-11.72Z M122.79-16.56L122.79-11.45L106.76-11.45L106.76-16.56L122.79-16.56ZM125.08-5.08L125.08 0L106.76 0Q105.70 0 104.45-0.37Q103.20-0.74 102.14-1.59Q101.07-2.44 100.36-3.80Q99.65-5.16 99.65-7.13L99.65-7.13L99.65-25.45Q99.65-25.98 99.84-26.45Q100.04-26.91 100.38-27.27Q100.72-27.62 101.19-27.81Q101.66-28.01 102.21-28.01L102.21-28.01L125.08-28.01L125.08-22.93L104.73-22.93L104.73-7.13Q104.73-6.13 105.25-5.61Q105.78-5.08 106.80-5.08L106.80-5.08L125.08-5.08Z M170.94-7.13L170.94-6.15Q170.94-5.21 170.62-4.14Q170.29-3.07 169.56-2.15Q168.83-1.23 167.66-0.62Q166.48 0 164.79 0L164.79 0L145.51 0Q144.96 0 144.49-0.20Q144.02-0.39 143.68-0.73Q143.34-1.07 143.14-1.54Q142.95-2.01 142.95-2.56L142.95-2.56L142.95-25.45Q142.95-25.98 143.14-26.45Q143.34-26.91 143.68-27.27Q144.02-27.62 144.49-27.81Q144.96-28.01 145.51-28.01L145.51-28.01L162.50-28.01Q163.44-28.01 164.51-27.68Q165.59-27.34 166.51-26.61Q167.44-25.88 168.06-24.71Q168.67-23.54 168.67-21.84L168.67-21.84L168.67-20.88Q168.67-19.53 168.22-17.98Q167.77-16.43 166.78-15.04L166.78-15.04Q167.64-14.51 168.39-13.77Q169.14-13.03 169.71-12.05Q170.27-11.07 170.61-9.84Q170.94-8.61 170.94-7.13L170.94-7.13ZM165.86-6.19L165.86-7.13Q165.86-8.13 165.55-8.92Q165.23-9.71 164.67-10.27Q164.10-10.84 163.30-11.14Q162.50-11.45 161.50-11.45L161.50-11.45L150.06-11.45L150.06-16.56L159.22-16.56Q160.21-16.56 161.02-16.87Q161.82-17.17 162.38-17.73Q162.95-18.30 163.25-19.09Q163.55-19.88 163.55-20.88L163.55-20.88L163.55-21.84Q163.55-22.93 162.50-22.93L162.50-22.93L148.03-22.93L148.03-5.08L164.79-5.08Q164.92-5.08 165.12-5.10Q165.31-5.12 165.47-5.21Q165.63-5.31 165.74-5.55Q165.86-5.78 165.86-6.19L165.86-6.19Z M203.34-21.84L203.34-18.59Q203.34-16.86 202.91-15.49Q202.48-14.12 201.75-13.08Q201.02-12.03 200.06-11.29Q199.10-10.55 198.06-10.07Q197.01-9.59 195.95-9.38Q194.88-9.16 193.95-9.16L193.95-9.16L204.55 0L196.70 0L186.11-9.16L182.46-9.16L182.46-14.24L193.95-14.24Q194.90-14.32 195.69-14.64Q196.48-14.96 197.06-15.51Q197.64-16.05 197.95-16.83Q198.26-17.60 198.26-18.59L198.26-18.59L198.26-21.80Q198.26-22.23 198.15-22.45Q198.05-22.68 197.88-22.78Q197.71-22.89 197.53-22.91Q197.34-22.93 197.19-22.93L197.19-22.93L180.43-22.93L180.43 0L175.35 0L175.35-25.45Q175.35-25.98 175.55-26.45Q175.74-26.91 176.08-27.27Q176.43-27.62 176.89-27.81Q177.36-28.01 177.91-28.01L177.91-28.01L197.19-28.01Q198.89-28.01 200.06-27.39Q201.23-26.78 201.96-25.85Q202.70-24.92 203.02-23.85Q203.34-22.77 203.34-21.84L203.34-21.84Z M213.55-28.01L213.55 0L208.48 0L208.48-28.01L213.55-28.01Z M247.44-16.29L247.44-11.72Q247.44-9.16 246.55-7.01Q245.66-4.86 244.10-3.31Q242.54-1.76 240.39-0.88Q238.24 0 235.72 0L235.72 0L222.01 0Q221.46 0 221.00-0.20Q220.53-0.39 220.19-0.73Q219.84-1.07 219.65-1.54Q219.45-2.01 219.45-2.56L219.45-2.56L219.45-25.45Q219.45-25.98 219.65-26.45Q219.84-26.91 220.19-27.27Q220.53-27.62 221.00-27.81Q221.46-28.01 222.01-28.01L222.01-28.01L235.72-28.01Q238.24-28.01 240.39-27.13Q242.54-26.25 244.10-24.70Q245.66-23.14 246.55-20.99Q247.44-18.83 247.44-16.29L247.44-16.29ZM242.36-11.72L242.36-16.29Q242.36-17.77 241.88-19.00Q241.41-20.23 240.53-21.10Q239.65-21.97 238.43-22.45Q237.21-22.93 235.72-22.93L235.72-22.93L224.53-22.93L224.53-5.08L235.72-5.08Q237.21-5.08 238.43-5.56Q239.65-6.04 240.53-6.90Q241.41-7.77 241.88-8.99Q242.36-10.21 242.36-11.72L242.36-11.72Z M280.06-14.00L280.06-2.56Q280.06-2.01 279.86-1.54Q279.67-1.07 279.33-0.73Q278.98-0.39 278.52-0.20Q278.05 0 277.50 0L277.50 0L259.18 0Q258.48 0 257.67-0.17Q256.86-0.33 256.06-0.68Q255.27-1.04 254.55-1.59Q253.83-2.15 253.27-2.94Q252.71-3.73 252.38-4.78Q252.05-5.82 252.05-7.13L252.05-7.13L252.05-20.88Q252.05-21.58 252.22-22.39Q252.38-23.20 252.73-23.99Q253.09-24.79 253.65-25.51Q254.22-26.23 255.01-26.79Q255.80-27.34 256.84-27.68Q257.87-28.01 259.18-28.01L259.18-28.01L279.82-28.01L279.82-22.93L259.18-22.93Q258.18-22.93 257.66-22.40Q257.13-21.88 257.13-20.84L257.13-20.84L257.13-7.13Q257.13-6.15 257.67-5.62Q258.20-5.08 259.18-5.08L259.18-5.08L274.98-5.08L274.98-11.45L261.46-11.45L261.46-16.56L277.50-16.56Q278.05-16.56 278.52-16.36Q278.98-16.15 279.33-15.80Q279.67-15.45 279.86-14.99Q280.06-14.53 280.06-14.00L280.06-14.00Z M308.38-16.56L308.38-11.45L292.34-11.45L292.34-16.56L308.38-16.56ZM310.66-5.08L310.66 0L292.34 0Q291.29 0 290.04-0.37Q288.79-0.74 287.72-1.59Q286.66-2.44 285.95-3.80Q285.23-5.16 285.23-7.13L285.23-7.13L285.23-25.45Q285.23-25.98 285.43-26.45Q285.63-26.91 285.97-27.27Q286.31-27.62 286.78-27.81Q287.25-28.01 287.79-28.01L287.79-28.01L310.66-28.01L310.66-22.93L290.31-22.93L290.31-7.13Q290.31-6.13 290.84-5.61Q291.37-5.08 292.38-5.08L292.38-5.08L310.66-5.08Z"/></g>
</svg>
</g><g opacity="1" transform="rotate(0 153.7682 80.6804)">
<svg width="192.6261" height="217.481" x="153.7682" y="80.6804" version="1.1" preserveAspectRatio="none" viewBox="53.244998931884766 47.21099853515625 93.51202392578125 105.5780029296875">
  <g transform="matrix(1 0 0 1 0 0)" class="icon1"><g><path d="M100 47.211L53.245 79.502v10.287H61.5v7h4.104v36.003l6.376-10.255 6.417 10.647V96.789H82.5v-7h7v7h4.104v36.003l6.376-10.255 6.417 10.647V96.789h4.104v-7h7v7h4.104v36.003l6.376-10.255 6.417 10.647V96.789h4.104v-7h8.255V79.501L100 47.211zm-24.604 75.183l-3.376-5.603-3.417 5.495V96.789h6.793v25.605zM79.5 93.789h-15v-4h15v4zm23.896 28.605l-3.376-5.603-3.417 5.495V96.789h6.793v25.605zm4.104-28.605h-15v-4h15v4zm23.896 28.605l-3.376-5.603-3.417 5.495V96.789h6.793v25.605zm4.104-28.605h-15v-4h15v4zm8.255-7h-87.51v-5.713L100 50.856l43.755 30.219v5.714z"></path><path d="M141.5 135.789h-83v7h-5v10h93v-10h-5v-7zm-80 3h77v4h-77v-4zm82 7v4h-87v-4h87z"></path><path d="M93.5 72.289c0 3.584 2.916 6.5 6.5 6.5s6.5-2.916 6.5-6.5-2.916-6.5-6.5-6.5-6.5 2.916-6.5 6.5zm10 0c0 1.93-1.57 3.5-3.5 3.5s-3.5-1.57-3.5-3.5 1.57-3.5 3.5-3.5 3.5 1.57 3.5 3.5z"></path></g></g>
</svg>
</g></svg></svg>